<svg xmlns="http://www.w3.org/2000/svg" width="1000" height="750" viewBox="0 0 1000 750"><defs><marker id="a" markerWidth="10" markerHeight="8" refX="9" refY="4" orient="auto"><path d="M0,0 L10,4 L0,8" fill="#398ba4"/></marker></defs><rect width="1000" height="750" fill="#f5f8fc"/><text x="40" y="38" font-family="Arial" font-size="24" fill="#14324b">Sumativa 3 · Grupo 11 · Arquitectura de eventos</text><rect x="40" y="80" width="280" height="88" rx="12" fill="#14324b"/><text x="54" y="111" font-family="Arial" font-size="17" fill="white">Cliente / Postman</text><text x="54" y="138" font-family="Arial" font-size="13" fill="#d9e8ed">REST y GraphQL</text><rect x="350" y="80" width="280" height="88" rx="12" fill="#14324b"/><text x="364" y="111" font-family="Arial" font-size="17" fill="white">AWS EC2 · BFF Java</text><text x="364" y="138" font-family="Arial" font-size="13" fill="#d9e8ed">Docker / Spring Boot</text><rect x="660" y="80" width="280" height="88" rx="12" fill="#14324b"/><text x="674" y="111" font-family="Arial" font-size="17" fill="white">Azure Functions Java</text><text x="674" y="138" font-family="Arial" font-size="13" fill="#d9e8ed">Usuarios y Roles · REST + GraphQL</text><rect x="660" y="245" width="280" height="88" rx="12" fill="#14324b"/><text x="674" y="276" font-family="Arial" font-size="17" fill="white">Oracle Database</text><text x="674" y="303" font-family="Arial" font-size="13" fill="#d9e8ed">CRUD + trigger en misma transacción</text><rect x="350" y="245" width="280" height="88" rx="12" fill="#14324b"/><text x="364" y="276" font-family="Arial" font-size="17" fill="white">Oracle · eventos_outbox</text><text x="364" y="303" font-family="Arial" font-size="13" fill="#d9e8ed">Intención persistida / ID estable</text><rect x="40" y="245" width="280" height="88" rx="12" fill="#14324b"/><text x="54" y="276" font-family="Arial" font-size="17" fill="white">Azure · PublicarEventos</text><text x="54" y="303" font-family="Arial" font-size="13" fill="#d9e8ed">Timer Java · cada minuto</text><rect x="40" y="410" width="280" height="88" rx="12" fill="#14324b"/><text x="54" y="441" font-family="Arial" font-size="17" fill="white">Azure Event Grid Topic</text><text x="54" y="468" font-family="Arial" font-size="13" fill="#d9e8ed">sumativa3-usuarios-roles-g11</text><rect x="350" y="410" width="280" height="88" rx="12" fill="#14324b"/><text x="364" y="441" font-family="Arial" font-size="17" fill="white">Suscripción de auditoría</text><text x="364" y="468" font-family="Arial" font-size="13" fill="#d9e8ed">Seis tipos → Azure Function</text><rect x="660" y="410" width="280" height="88" rx="12" fill="#14324b"/><text x="674" y="441" font-family="Arial" font-size="17" fill="white">Azure · AuditarEvento</text><text x="674" y="468" font-family="Arial" font-size="13" fill="#d9e8ed">EventGridTrigger Java</text><rect x="660" y="575" width="280" height="88" rx="12" fill="#14324b"/><text x="674" y="606" font-family="Arial" font-size="17" fill="white">Oracle · auditoria_eventos</text><text x="674" y="633" font-family="Arial" font-size="13" fill="#d9e8ed">event_id único / efecto persistente</text><path d="M320,124 L350,124" stroke="#398ba4" stroke-width="3" marker-end="url(#a)" fill="none"/><path d="M630,124 L660,124" stroke="#398ba4" stroke-width="3" marker-end="url(#a)" fill="none"/><path d="M800,168 L800,245" stroke="#398ba4" stroke-width="3" marker-end="url(#a)" fill="none"/><path d="M660,289 L630,289" stroke="#398ba4" stroke-width="3" marker-end="url(#a)" fill="none"/><path d="M350,289 L320,289" stroke="#398ba4" stroke-width="3" marker-end="url(#a)" fill="none"/><path d="M180,333 L180,410" stroke="#398ba4" stroke-width="3" marker-end="url(#a)" fill="none"/><path d="M320,454 L350,454" stroke="#398ba4" stroke-width="3" marker-end="url(#a)" fill="none"/><path d="M630,454 L660,454" stroke="#398ba4" stroke-width="3" marker-end="url(#a)" fill="none"/><path d="M800,498 L800,575" stroke="#398ba4" stroke-width="3" marker-end="url(#a)" fill="none"/><text x="40" y="710" font-family="Arial" font-size="15" fill="#14324b">CRUD síncrono · Auditoría asíncrona · Reintentos con ID estable · Sin orden garantizado</text></svg>